<mxfile host="app.diagrams.net" modified="2022-10-01T02:34:30.587Z" agent="5.0 (Windows NT 10.0; Win64; x64) AppleWebKit/537.36 (KHTML, like Gecko) Chrome/105.0.0.0 Safari/537.36 Edg/105.0.1343.53" etag="jXatBlr7BOu7ceqIsizA" version="20.4.0" type="github">
  <diagram id="RiBcQp2YDbCS_2zI9SJn" name="Page-1">
    <mxGraphModel dx="1184" dy="667" grid="1" gridSize="10" guides="1" tooltips="1" connect="1" arrows="1" fold="1" page="1" pageScale="1" pageWidth="850" pageHeight="1100" math="0" shadow="0">
      <root>
        <mxCell id="0" />
        <mxCell id="1" parent="0" />
        <mxCell id="KDCTLspTZqRZgD3_ViFh-13" value="" style="edgeStyle=orthogonalEdgeStyle;rounded=0;orthogonalLoop=1;jettySize=auto;html=1;" edge="1" parent="1" source="KDCTLspTZqRZgD3_ViFh-1" target="KDCTLspTZqRZgD3_ViFh-6">
          <mxGeometry relative="1" as="geometry" />
        </mxCell>
        <mxCell id="KDCTLspTZqRZgD3_ViFh-1" value="Begin" style="ellipse;whiteSpace=wrap;html=1;" vertex="1" parent="1">
          <mxGeometry x="20" y="50" width="120" height="80" as="geometry" />
        </mxCell>
        <mxCell id="KDCTLspTZqRZgD3_ViFh-5" value="" style="endArrow=classic;html=1;rounded=0;" edge="1" parent="1" target="KDCTLspTZqRZgD3_ViFh-6">
          <mxGeometry width="50" height="50" relative="1" as="geometry">
            <mxPoint x="79.66" y="130" as="sourcePoint" />
            <mxPoint x="79.66" y="170" as="targetPoint" />
          </mxGeometry>
        </mxCell>
        <mxCell id="KDCTLspTZqRZgD3_ViFh-6" value="Input a number" style="rounded=0;whiteSpace=wrap;html=1;" vertex="1" parent="1">
          <mxGeometry x="20.00000000000008" y="169.9999999999999" width="120" height="60" as="geometry" />
        </mxCell>
        <mxCell id="KDCTLspTZqRZgD3_ViFh-11" value="" style="endArrow=classic;html=1;rounded=0;" edge="1" parent="1" target="KDCTLspTZqRZgD3_ViFh-12">
          <mxGeometry width="50" height="50" relative="1" as="geometry">
            <mxPoint x="79.66000000000008" y="230" as="sourcePoint" />
            <mxPoint x="79.85428571428588" y="269.9999999999999" as="targetPoint" />
          </mxGeometry>
        </mxCell>
        <mxCell id="KDCTLspTZqRZgD3_ViFh-12" value="Number&amp;gt;0" style="rhombus;whiteSpace=wrap;html=1;" vertex="1" parent="1">
          <mxGeometry x="40.00428571428588" y="269.9999999999999" width="80" height="80" as="geometry" />
        </mxCell>
        <mxCell id="KDCTLspTZqRZgD3_ViFh-14" value="" style="endArrow=classic;html=1;rounded=0;exitX=1;exitY=0.5;exitDx=0;exitDy=0;" edge="1" parent="1" source="KDCTLspTZqRZgD3_ViFh-12">
          <mxGeometry width="50" height="50" relative="1" as="geometry">
            <mxPoint x="130.00000000000009" y="309.66" as="sourcePoint" />
            <mxPoint x="190" y="309.66" as="targetPoint" />
          </mxGeometry>
        </mxCell>
        <mxCell id="KDCTLspTZqRZgD3_ViFh-16" value="#is positve" style="shape=parallelogram;perimeter=parallelogramPerimeter;whiteSpace=wrap;html=1;fixedSize=1;" vertex="1" parent="1">
          <mxGeometry x="180" y="290" width="120" height="60" as="geometry" />
        </mxCell>
        <mxCell id="KDCTLspTZqRZgD3_ViFh-17" value="" style="endArrow=classic;html=1;rounded=0;" edge="1" parent="1">
          <mxGeometry width="50" height="50" relative="1" as="geometry">
            <mxPoint x="79.59000000000009" y="349.9999999999999" as="sourcePoint" />
            <mxPoint x="79.76288051167575" y="390.1714052026101" as="targetPoint" />
          </mxGeometry>
        </mxCell>
        <mxCell id="KDCTLspTZqRZgD3_ViFh-18" value="Number&amp;lt;0" style="rhombus;whiteSpace=wrap;html=1;" vertex="1" parent="1">
          <mxGeometry x="40.00428571428588" y="389.9999999999999" width="80" height="80" as="geometry" />
        </mxCell>
        <mxCell id="KDCTLspTZqRZgD3_ViFh-19" value="# is negative" style="shape=parallelogram;perimeter=parallelogramPerimeter;whiteSpace=wrap;html=1;fixedSize=1;" vertex="1" parent="1">
          <mxGeometry x="180" y="400" width="120" height="60" as="geometry" />
        </mxCell>
        <mxCell id="KDCTLspTZqRZgD3_ViFh-20" value="" style="endArrow=classic;html=1;rounded=0;exitX=1;exitY=0.5;exitDx=0;exitDy=0;" edge="1" parent="1">
          <mxGeometry width="50" height="50" relative="1" as="geometry">
            <mxPoint x="120.00428571428597" y="429.9199999999999" as="sourcePoint" />
            <mxPoint x="190" y="429.58" as="targetPoint" />
          </mxGeometry>
        </mxCell>
        <mxCell id="KDCTLspTZqRZgD3_ViFh-21" value="" style="endArrow=none;html=1;rounded=0;" edge="1" parent="1">
          <mxGeometry width="50" height="50" relative="1" as="geometry">
            <mxPoint x="290" y="320" as="sourcePoint" />
            <mxPoint x="350" y="320" as="targetPoint" />
          </mxGeometry>
        </mxCell>
        <mxCell id="KDCTLspTZqRZgD3_ViFh-23" value="" style="endArrow=classic;html=1;rounded=0;" edge="1" parent="1">
          <mxGeometry width="50" height="50" relative="1" as="geometry">
            <mxPoint x="290" y="440" as="sourcePoint" />
            <mxPoint x="350" y="440" as="targetPoint" />
            <Array as="points">
              <mxPoint x="290" y="440" />
            </Array>
          </mxGeometry>
        </mxCell>
        <mxCell id="KDCTLspTZqRZgD3_ViFh-24" value="" style="endArrow=none;html=1;rounded=0;" edge="1" parent="1">
          <mxGeometry width="50" height="50" relative="1" as="geometry">
            <mxPoint x="349" y="610" as="sourcePoint" />
            <mxPoint x="350" y="320" as="targetPoint" />
            <Array as="points">
              <mxPoint x="350" y="320" />
            </Array>
          </mxGeometry>
        </mxCell>
        <mxCell id="KDCTLspTZqRZgD3_ViFh-25" value="#is zero" style="shape=parallelogram;perimeter=parallelogramPerimeter;whiteSpace=wrap;html=1;fixedSize=1;" vertex="1" parent="1">
          <mxGeometry x="20" y="510" width="120" height="60" as="geometry" />
        </mxCell>
        <mxCell id="KDCTLspTZqRZgD3_ViFh-28" value="" style="endArrow=classic;html=1;rounded=0;startArrow=none;" edge="1" parent="1" source="KDCTLspTZqRZgD3_ViFh-29">
          <mxGeometry width="50" height="50" relative="1" as="geometry">
            <mxPoint x="79.59000000000016" y="570" as="sourcePoint" />
            <mxPoint x="79.76288051167582" y="610.17140520261" as="targetPoint" />
          </mxGeometry>
        </mxCell>
        <mxCell id="KDCTLspTZqRZgD3_ViFh-29" value="" style="ellipse;whiteSpace=wrap;html=1;aspect=fixed;" vertex="1" parent="1">
          <mxGeometry x="75" y="610" width="10" height="10" as="geometry" />
        </mxCell>
        <mxCell id="KDCTLspTZqRZgD3_ViFh-31" value="" style="endArrow=classic;html=1;rounded=0;entryX=1;entryY=0.5;entryDx=0;entryDy=0;" edge="1" parent="1" target="KDCTLspTZqRZgD3_ViFh-29">
          <mxGeometry width="50" height="50" relative="1" as="geometry">
            <mxPoint x="350" y="610" as="sourcePoint" />
            <mxPoint x="310" y="560" as="targetPoint" />
          </mxGeometry>
        </mxCell>
        <mxCell id="KDCTLspTZqRZgD3_ViFh-33" value="" style="endArrow=classic;html=1;rounded=0;" edge="1" parent="1">
          <mxGeometry width="50" height="50" relative="1" as="geometry">
            <mxPoint x="79.58000000000015" y="569.83" as="sourcePoint" />
            <mxPoint x="79.75288051167581" y="610.00140520261" as="targetPoint" />
          </mxGeometry>
        </mxCell>
        <mxCell id="KDCTLspTZqRZgD3_ViFh-34" value="" style="endArrow=classic;html=1;rounded=0;" edge="1" parent="1">
          <mxGeometry width="50" height="50" relative="1" as="geometry">
            <mxPoint x="79.58000000000015" y="619.9999999999999" as="sourcePoint" />
            <mxPoint x="79.75288051167581" y="660.1714052026099" as="targetPoint" />
          </mxGeometry>
        </mxCell>
        <mxCell id="KDCTLspTZqRZgD3_ViFh-35" value="End" style="ellipse;whiteSpace=wrap;html=1;" vertex="1" parent="1">
          <mxGeometry x="20" y="660" width="120" height="80" as="geometry" />
        </mxCell>
        <mxCell id="KDCTLspTZqRZgD3_ViFh-37" value="" style="endArrow=classic;html=1;rounded=0;" edge="1" parent="1">
          <mxGeometry width="50" height="50" relative="1" as="geometry">
            <mxPoint x="79.59000000000015" y="469.9999999999999" as="sourcePoint" />
            <mxPoint x="79.7628805116758" y="510.17140520261" as="targetPoint" />
          </mxGeometry>
        </mxCell>
        <mxCell id="KDCTLspTZqRZgD3_ViFh-38" value="Yes" style="text;html=1;align=center;verticalAlign=middle;resizable=0;points=[];autosize=1;strokeColor=none;fillColor=none;" vertex="1" parent="1">
          <mxGeometry x="110" y="265" width="40" height="30" as="geometry" />
        </mxCell>
        <mxCell id="KDCTLspTZqRZgD3_ViFh-39" value="Yes" style="text;html=1;align=center;verticalAlign=middle;resizable=0;points=[];autosize=1;strokeColor=none;fillColor=none;" vertex="1" parent="1">
          <mxGeometry x="110" y="385" width="40" height="30" as="geometry" />
        </mxCell>
        <mxCell id="KDCTLspTZqRZgD3_ViFh-40" value="No" style="text;html=1;align=center;verticalAlign=middle;resizable=0;points=[];autosize=1;strokeColor=none;fillColor=none;" vertex="1" parent="1">
          <mxGeometry x="40" y="345" width="40" height="30" as="geometry" />
        </mxCell>
        <mxCell id="KDCTLspTZqRZgD3_ViFh-41" value="No" style="text;html=1;align=center;verticalAlign=middle;resizable=0;points=[];autosize=1;strokeColor=none;fillColor=none;" vertex="1" parent="1">
          <mxGeometry x="30" y="465" width="40" height="30" as="geometry" />
        </mxCell>
      </root>
    </mxGraphModel>
  </diagram>
</mxfile>
